<?xml version="1.0" encoding="iso-8859-1"?>
<!-- Generator: Adobe Illustrator 19.0.0, SVG Export Plug-In . SVG Version: 6.00 Build 0)  -->
<svg version="1.1" id="Layer_1" xmlns="http://www.w3.org/2000/svg" xmlns:xlink="http://www.w3.org/1999/xlink" x="0px" y="0px"
	 viewBox="0 0 512 512" style="enable-background:new 0 0 512 512;" xml:space="preserve">
<g>
	<g>
		<path d="M471.935,21.86H40.066C17.973,21.86,0,39.833,0,61.926v71.088c0,22.091,17.973,40.066,40.066,40.066h47.648v306.86
			c0,5.633,4.567,10.199,10.199,10.199h316.175v-0.001c5.632,0,10.199-4.566,10.199-10.199V173.08h47.648
			c22.092,0,40.065-17.974,40.065-40.066V61.926C512,39.833,494.027,21.86,471.935,21.86z M108.112,469.74v-41.671l41.671,41.671
			H108.112z M403.888,469.74h-41.671l41.671-41.671V469.74z M403.888,399.22l-70.52,70.52H178.632l-70.52-70.519V107.668h89.99
			c-23.356,17.605-38.484,45.57-38.484,77.004c0,53.145,43.237,96.382,96.382,96.382c53.145,0,96.383-43.237,96.383-96.382
			c0-31.434-15.129-59.399-38.484-77.004h89.99V399.22z M256,108.688c41.897,0,75.984,34.087,75.984,75.984
			c0,41.898-34.087,75.984-75.984,75.984s-75.984-34.086-75.984-75.984C180.016,142.774,214.103,108.688,256,108.688z
			 M471.935,152.682h-47.648v-46.032h25.498c5.632,0,10.199-4.566,10.199-10.199c0-5.633-4.567-10.199-10.199-10.199H62.215
			c-5.632,0-10.199,4.566-10.199,10.199c0,5.633,4.567,10.199,10.199,10.199h25.498v46.032H40.066
			c-10.845,0-19.667-8.823-19.667-19.667V61.926c0-10.845,8.822-19.667,19.667-19.667h431.869c10.845,0,19.667,8.822,19.667,19.667
			v71.088h0C491.602,143.859,482.779,152.682,471.935,152.682z"/>
	</g>
</g>
<g>
	<g>
		<path d="M310.286,179.861h-3.814c-1.771-13.62-9.262-26.424-26.56-26.424c-17.435,0-22.746,14.029-27.378,26.424h-27.104
			c1.363-11.986,10.216-16.072,10.216-21.248c0-4.222-5.72-7.628-9.534-7.628c-7.628,0-16.481,12.394-16.89,28.876h-3.813
			c-1.771,0-3.406,2.043-3.406,4.631c-0.002,2.316,1.632,4.632,3.404,4.632h4.222c2.451,15.255,12.123,25.743,28.876,25.743
			c18.524,0,24.654-13.62,29.147-25.743h23.972c-0.68,9.125-5.038,12.258-5.038,16.072c0,5.039,6.265,7.219,9.398,7.219
			c7.9,0,10.488-14.437,10.761-23.291h3.541c1.771,0,3.406-2.316,3.406-4.631C313.692,181.904,312.057,179.861,310.286,179.861z
			 M236.734,198.251c-6.401,0-9.942-4.222-11.168-10.216h23.699C246.677,193.891,243.408,198.251,236.734,198.251z M270.649,180.953
			c2.451-6.266,5.039-10.897,11.032-10.897c5.175,0,8.444,4.086,9.534,10.897H270.649z"/>
	</g>
</g>
<g>
	<g>
		<path d="M282.518,399.366c-5.632,0-10.199,4.566-10.199,10.199v10.199c0,5.633,4.567,10.199,10.199,10.199
			s10.199-4.566,10.199-10.199v-10.199C292.717,403.932,288.15,399.366,282.518,399.366z"/>
	</g>
</g>
<g>
	<g>
		<path d="M282.518,315.732c-5.632,0-10.199,4.566-10.199,10.199v42.837c0,5.633,4.567,10.199,10.199,10.199
			s10.199-4.566,10.199-10.199v-42.837C292.717,320.298,288.15,315.732,282.518,315.732z"/>
	</g>
</g>
<g>
	<g>
		<path d="M229.482,315.732c-5.632,0-10.199,4.566-10.199,10.199v93.833c0,5.633,4.567,10.199,10.199,10.199
			c5.632,0,10.199-4.566,10.199-10.199v-93.833C239.681,320.298,235.114,315.732,229.482,315.732z"/>
	</g>
</g>
<g>
</g>
<g>
</g>
<g>
</g>
<g>
</g>
<g>
</g>
<g>
</g>
<g>
</g>
<g>
</g>
<g>
</g>
<g>
</g>
<g>
</g>
<g>
</g>
<g>
</g>
<g>
</g>
<g>
</g>
</svg>
