<svg 
          width="418.8705139160156" 
          height="400" fill="none" 
          xmlns="http://www.w3.org/2000/svg">
          <path d="M 405.33218640615735 140.85138794024175 L 279.7629626495699 122.60206091057898 L 223.63018287767127 8.803383427184311 C 222.0970413344829 5.68764405632734 219.5747761846149 3.1653785032246207 216.45903672924382 1.6322370016225545 C 208.6449601421444 -2.225345054121749 199.14936158525222 0.9893070520409015 195.24232329170252 8.803383427184311 L 139.10955861263238 122.60206091057898 L 13.540331082837826 140.85138794024175 C 10.078398459459049 141.34594973016664 6.913200984315521 142.97799759978756 4.489848100785289 145.450806549412 C 1.5601489806101139 148.46202030370242 -0.0542488941740419 152.51316905846483 0.001391989742214686 156.7140558828561 C 0.057032873658471275 160.91494270724735 1.778159935540291 164.9219015480487 4.78658442814776 167.85446468870626 L 95.63758666404168 256.4304691899913 L 74.17360741765896 381.505157936258 C 73.6702685449996 384.4146648954478 73.99223206350057 387.4070062473743 75.10298606283591 390.1428438072655 C 76.21374006217125 392.8786813671567 78.06884146856619 395.2485507442009 80.45792915078366 396.9837284975308 C 82.84701683300112 398.71890625086075 85.67449151846544 399.7499660641298 88.61973837439481 399.9599738199804 C 91.56498523032418 400.169981575831 94.51015662211121 399.55053982518126 97.12127207406115 398.17189629385797 L 209.4362530846869 339.12120650256384 L 321.7512416417269 398.17189629385797 C 324.81752472810365 399.80395017702756 328.37839390784103 400.3479440445851 331.7908703980509 399.7544698730927 C 340.39624558750353 398.27078450331805 346.182606800977 390.11053289229073 344.69892139095754 381.505157936258 L 323.23492705174635 256.4304691899913 L 414.08593636240363 167.85446468870626 C 416.55874537910273 165.4311118709092 418.1907932929928 162.2659074068582 418.6853550963326 158.80397487738398 C 420.0206719889327 150.14914355369842 413.98701796460426 142.13724854688138 405.33218640615735 140.85138794024175 L 405.33218640615735 140.85138794024175 Z" fill="rgb(27.62500025331974,24.103820398449898,23.826562575995922)"/>
        </svg>