<svg 
          width="20" 
          height="20" fill="none" 
          xmlns="http://www.w3.org/2000/svg">
          <path d="M 0 9.999997956412598 C 0 11.977810796095142 0.5864897449037527 13.911207625959745 1.6853036161210981 15.555698758050628 C 2.7841174873384436 17.20018989014151 4.345903870874704 18.48191479643792 6.17316460476645 19.238790940123096 C 8.000425338658196 19.99566708380827 10.011090889435314 20.193700410222924 11.950900496571304 19.807848288430836 C 13.890710103707294 19.42199616663875 15.67253899454274 18.469588558417346 17.07106377648004 17.07106377648004 C 18.469588558417346 15.67253899454274 19.42199616663875 13.890710103707294 19.807848288430836 11.950900496571304 C 20.193700410222924 10.011090889435314 19.99566708380827 8.000425338658196 19.238790940123096 6.17316460476645 C 18.48191479643792 4.345903870874704 17.20018989014151 2.7841174873384436 15.555698758050628 1.6853036161210981 C 13.911207625959745 0.5864897449037527 11.977810796095142 -2.3790488523029525e-15 9.999997956412598 0 C 7.347833630459589 2.2204455954827557e-15 4.804294830534493 1.0535680797642135 2.9289314551493533 2.9289314551493533 C 1.0535680797642135 4.804294830534493 1.903239081842362e-15 7.347833630459589 0 9.999997956412598 L 0 9.999997956412598 Z M 4.285713409891113 9.285712388097412 L 12.964282792442297 9.285712388097412 L 8.978569375739225 5.280712955874112 L 9.999997956412598 4.285713409891113 L 15.714282502934081 9.999997956412598 L 9.999997956412598 15.714282502934081 L 8.978569375739225 14.694996964250914 L 12.964282792442297 10.714283524727783 L 4.285713409891113 10.714283524727783 L 4.285713409891113 9.285712388097412 Z" fill="rgb(27.62500025331974,24.103820398449898,23.826562575995922)"/>
        </svg>