<svg 
          width="15.535430908203125" 
          height="14.925750732421875" fill="none" 
          xmlns="http://www.w3.org/2000/svg">
          <path d="M 4.692230046631211 7.612024682852865 L 1.709074994269594 4.643634853830042 C 0.5346653721483259 5.917559150016691 0.08962595716631916 7.193789840491632 0.08189957814916084 7.219929508473025 L 0 7.462874633013036 L 0.08112699623039059 7.705819757553048 C 0.09812503035596896 7.757330278235413 1.8705564048116043 12.844571422850954 7.768101560849712 12.844571422850954 C 8.485882203061111 12.844571422850954 9.139533894680902 12.766151874736455 9.739873565469614 12.634684725277172 L 7.6182096159341945 10.523522020737369 C 6.854288941001979 10.486258156773777 6.131616937872814 10.167550132200226 5.590794765729234 9.629404777056804 C 5.049972593585653 9.091259421913382 4.7296792667325 8.37216430746067 4.692230046631211 7.612024682852865 L 4.692230046631211 7.612024682852865 Z M 7.768101560849712 2.0811787596724947 C 6.3348582063944585 2.0811787596724947 5.160448768484425 2.3917796288897026 4.181516556077112 2.8484549660509666 L 1.3188929409716899 0 L 0.2263828969995825 1.087102629836408 L 14.133864886107329 14.925750732421875 L 15.226376035346846 13.838647002788615 L 12.678215919162799 11.30309982150103 C 14.716434758289047 9.801606660557955 15.443487349195522 7.738109933457552 15.454304280395203 7.705819757553048 L 15.535430908203123 7.462874633013036 L 15.454304280395203 7.219929508473025 C 15.437306246269625 7.16841898779066 13.66564671688782 2.0811787596724947 7.768101560849712 2.0811787596724947 Z M 9.240749540542007 7.8826465617647985 C 9.385232836366024 7.3621596823468405 9.26238367637992 6.77632434039681 8.86061197324429 6.375772369775579 C 8.458840270108658 5.975220399154347 7.869317483027669 5.8537474015480875 7.346241622558645 5.997515572581699 L 6.181103351885089 4.838144925021289 C 6.658565839553604 4.54598203546062 7.2075888195538305 4.390122355763959 7.768101560849712 4.387619743504455 C 9.47254087939545 4.387619743504457 10.858653973637196 5.766871492528451 10.858653973637196 7.462874633013036 C 10.85636268593906 8.020509808939474 10.699418627654753 8.566694220820118 10.405114860874322 9.041249551122725 L 9.240749540542007 7.8826465617647985 L 9.240749540542007 7.8826465617647985 Z" fill="rgb(196.00000351667404,196.00000351667404,196.00000351667404)"/>
        </svg>