<svg 
          width="47.587284088134766" 
          height="30" fill="none" 
          xmlns="http://www.w3.org/2000/svg">
          <path d="M 34.079043484022016 0.5396055576065314 C 33.8203899805555 0.3348293482008605 33.52374275286267 0.18330274984724246 33.20622263361443 0.09377114365539328 C 32.888702514366194 0.004239537463544107 32.55659539452654 -0.021524716587524174 32.22906597491639 0.017964643372073014 C 31.901536555306233 0.0574540033316702 31.585069672349846 0.1614158366999033 31.29792839643653 0.3238498749981434 C 31.01078712052321 0.48628391329638343 30.75865574062955 0.7039745065770532 30.556085478066088 0.964359255677406 L 13.066231782545238 23.45131095081553 L 4.496205080132253 13.007371281168952 C 4.295184663577456 12.739785291211911 4.042453617724066 12.515312979365401 3.75301349509151 12.347277603643402 C 3.4635733724589546 12.179242227921403 3.143322970168172 12.071069845147278 2.8112736333086525 12.0291805229983 C 2.479224296449133 11.987291200849324 2.142143372561926 12.0125396303611 1.8200392237629113 12.10342628834 C 1.4979350749638964 12.194312946318899 1.1973736460679478 12.348985161380908 0.9361950040308785 12.558262914217575 C 0.6750163619938093 12.767540667054243 0.4585441734046061 13.02715765089717 0.29962850555531745 13.321703532736104 C 0.14071283770602877 13.616249414575037 0.04259253460383277 13.939720814790823 0.011091872592496874 14.272916192919055 C -0.020408789418839023 14.606111571047288 0.015352680925114534 14.94223910022412 0.11625272885407074 15.261348239303022 C 0.21715277678302697 15.580457378381924 0.3811349732365843 15.876042516119464 0.598465994876172 16.130559109683052 L 11.017420060300966 29.073046659337695 C 11.25257960719286 29.362930046834794 11.549702576457936 29.59644161575146 11.886955024951758 29.756420324262983 C 12.224207473445581 29.916399032774507 12.593019481542965 29.99878154650845 12.966289863548118 29.997512353444698 C 13.362502769319427 30.015206000653794 13.757235581925677 29.938322721138636 14.117846278899673 29.77322385252736 C 14.47845697587367 29.60812498391608 14.794584532746988 29.35955614640912 15.040086469840844 29.04806535044324 L 34.60373677165442 4.0625609352280225 C 34.8031924496799 3.7977792068033325 34.94796233578558 3.495953786683355 35.02961520625269 3.1746676962494598 C 35.1112680767198 2.8533816058155645 35.128173172613394 2.5190594596175617 35.079339545609244 2.1911765412547033 C 35.030505918605094 1.8632936228918449 34.91690968966156 1.5484057500159052 34.74517521019794 1.2648582176488992 C 34.573440730734326 0.9813106852818931 34.34700215085834 0.7347723870418237 34.079043484022016 0.5396055576065314 L 34.079043484022016 0.5396055576065314 Z M 46.571795272678585 0.5396055576065314 C 46.313141769212066 0.3348293482008605 46.016494541519236 0.18330274984724246 45.698974422271 0.09377114365539328 C 45.381454303022764 0.004239537463544107 45.04934480037981 -0.021524716587524174 44.721815380769655 0.017964643372073014 C 44.394285961159504 0.0574540033316702 44.07781907820311 0.1614158366999033 43.79067780228979 0.3238498749981434 C 43.50353652637647 0.48628391329638343 43.25140514648281 0.7039745065770532 43.04883488391935 0.964359255677406 L 25.55898476260346 23.45131095081553 L 24.034869902196547 21.577398253707067 L 20.886695879582298 25.625049393524957 L 23.63509984340476 29.04806535044324 C 23.870259390296656 29.337948737940337 24.167382359561728 29.571455541250575 24.504634808055552 29.7314342497621 C 24.841887256549377 29.891412958273623 25.21070045604841 29.973795472007566 25.583970838053563 29.972526278943814 C 25.959266081629245 29.970796071632083 26.32935028330338 29.884542703675866 26.66674048761324 29.72017312177324 C 27.0041306919231 29.555803539870613 27.300157906749856 29.317542876607806 27.532839449899065 29.023079275942354 L 47.09648856031099 4.0375760521287445 C 47.29204366378974 3.773568083200816 47.433609088995304 3.4735843279617273 47.51308359323525 3.1547963088471977 C 47.5925580974752 2.836008289732668 47.60838012549651 2.5046756680168953 47.55964356980354 2.1797652966633687 C 47.51090701411057 1.854854925309842 47.39857176281417 1.5427459966821053 47.22906297056208 1.2613054580569845 C 47.059554178309995 0.9798649194318635 46.83620358120698 0.7346190127005794 46.571795272678585 0.5396055576065314 L 46.571795272678585 0.5396055576065314 Z" fill="rgb(0,99.54296976327896,21.899456083774567)"/>
        </svg>