<?xml version="1.0" encoding="iso-8859-1"?>
<!-- Generator: Adobe Illustrator 17.1.0, SVG Export Plug-In . SVG Version: 6.00 Build 0)  -->
<!DOCTYPE svg PUBLIC "-//W3C//DTD SVG 1.1//EN" "http://www.w3.org/Graphics/SVG/1.1/DTD/svg11.dtd">
<svg version="1.1" id="Capa_1" xmlns="http://www.w3.org/2000/svg" xmlns:xlink="http://www.w3.org/1999/xlink" x="0px" y="0px"
	 viewBox="0 0 313 313" style="enable-background:new 0 0 313 313;" xml:space="preserve">
<g>
	<path d="M283,3H30C13.458,3,0,16.458,0,33v247c0,16.542,13.458,30,30,30h253c16.542,0,30-13.458,30-30V33
		C313,16.458,299.542,3,283,3z M283,33l0.01,131.228l-50.683-47.598c-3.544-3.327-8.083-5.159-12.78-5.159
		c-5.715,0-11.063,2.681-14.673,7.354l-59.663,77.256c-1.934,2.504-5.036,3.999-8.299,3.999c-2.223,0-4.324-0.676-6.076-1.956
		l-38.773-28.316c-3.862-2.821-8.865-4.374-14.085-4.374c-5.945,0-11.504,1.938-15.65,5.456L30,198.31V33H283z"/>
	<path d="M115,122c17.093,0,31-13.907,31-31s-13.907-31-31-31S84,73.907,84,91S97.907,122,115,122z"/>
</g>
<g>
</g>
<g>
</g>
<g>
</g>
<g>
</g>
<g>
</g>
<g>
</g>
<g>
</g>
<g>
</g>
<g>
</g>
<g>
</g>
<g>
</g>
<g>
</g>
<g>
</g>
<g>
</g>
<g>
</g>
</svg>
